<?xml version="1.0" encoding="UTF-8"?>
<svg version="1.1" xmlns="http://www.w3.org/2000/svg" width="1366" height="768">
<path d="M0 0 C450.78 0 901.56 0 1366 0 C1366 253.44 1366 506.88 1366 768 C915.22 768 464.44 768 0 768 C0 514.56 0 261.12 0 0 Z " fill="#FCFCFC" transform="translate(0,0)"/>
<path d="M0 0 C3.41783814 1.42081567 5.06021125 3.03153399 7.19921875 6.02734375 C7.76833984 6.81947266 8.33746094 7.61160156 8.92382812 8.42773438 C9.50583984 9.25595703 10.08785156 10.08417969 10.6875 10.9375 C11.28111328 11.76185547 11.87472656 12.58621094 12.48632812 13.43554688 C16.85664621 19.56993862 16.85664621 19.56993862 18 23 C23.82080711 19.89608557 28.84612828 16.16570828 34 12.0625 C36.99086491 9.69640469 39.98945206 7.34100318 43 5 C43.99773437 4.21278564 43.99773437 4.21278564 45.015625 3.40966797 C46.61811975 2.1913848 48.30353836 1.08361488 50 0 C54.06353587 1.35451196 55.43940433 4.10129029 57.75 7.5 C58.63634916 8.77720339 59.52437625 10.05324394 60.4140625 11.328125 C60.85008789 11.95396484 61.28611328 12.57980469 61.73535156 13.22460938 C63.96907715 16.36044962 66.38744712 19.34590292 68.8203125 22.328125 C70 24 70 24 70 26 C74.85140031 22.87855639 79.55301855 19.63331672 84.11328125 16.09765625 C85.3962207 15.10475586 85.3962207 15.10475586 86.70507812 14.09179688 C88.46879246 12.7191383 90.22646802 11.33869089 91.97851562 9.95117188 C92.82736328 9.29826172 93.67621094 8.64535156 94.55078125 7.97265625 C95.31044189 7.37718994 96.07010254 6.78172363 96.8527832 6.16821289 C99 5 99 5 101.08032227 5.06860352 C103.57537703 6.2791636 104.57613573 7.66172145 106.1640625 9.9296875 C106.72867187 10.72503906 107.29328125 11.52039063 107.875 12.33984375 C108.74125 13.59474609 108.74125 13.59474609 109.625 14.875 C110.21023438 15.70386719 110.79546875 16.53273438 111.3984375 17.38671875 C113.6381864 20.56654574 115.84248623 23.76372934 118 27 C121.05392677 26.40125642 123.00771909 25.48450828 125.46875 23.59375 C126.44086426 22.85451294 126.44086426 22.85451294 127.43261719 22.1003418 C128.45597168 21.30817261 128.45597168 21.30817261 129.5 20.5 C130.20543945 19.96479736 130.91087891 19.42959473 131.63769531 18.87817383 C134.97799657 16.34122182 138.29257343 13.77538694 141.578125 11.16796875 C142.11759766 10.74644531 142.65707031 10.32492187 143.21289062 9.890625 C144.66553351 8.75361354 146.10659236 7.60184718 147.546875 6.44921875 C150 5 150 5 151.96826172 5.18530273 C154.52757046 6.21154802 155.36864528 7.34746649 156.9609375 9.5859375 C157.50733887 10.34181152 158.05374023 11.09768555 158.61669922 11.87646484 C159.19693848 12.70098145 159.77717773 13.52549805 160.375 14.375 C161.63520315 16.12515376 162.89562575 17.87514953 164.15625 19.625 C164.79691406 20.5221875 165.43757813 21.419375 166.09765625 22.34375 C168.9883789 26.38007732 171.92916783 30.37880445 174.875 34.375 C175.4414624 35.14634277 176.0079248 35.91768555 176.59155273 36.71240234 C179.74972449 41.00003616 182.94773631 45.25318093 186.19140625 49.4765625 C187.25222412 50.85835693 187.25222412 50.85835693 188.33447266 52.26806641 C189.68792396 54.0262647 191.04536064 55.78140599 192.40771484 57.53271484 C195.728445 61.84292534 198.82858676 66.20758804 201.73071289 70.8125 C202.34709122 71.78832031 202.96346954 72.76414062 203.598526 73.76953125 C204.06101242 74.50558594 204.52349884 75.24164063 205 76 C168.86452147 76.12853654 132.72903939 76.25602707 96.59355247 76.38218227 C92.29324394 76.39719625 87.99293544 76.41221858 83.69262695 76.42724609 C82.40886422 76.43173202 82.40886422 76.43173202 81.09916688 76.43630856 C67.37878602 76.48427219 53.65840762 76.53290695 39.93803006 76.58180541 C25.77984159 76.63224866 11.62165059 76.68193443 -2.53654283 76.73096704 C-9.68579655 76.75574474 -16.83504978 76.78061356 -23.98429969 76.80647001 C-25.51907883 76.81201073 -27.05385811 76.81751209 -28.58863753 76.8229734 C-32.35490913 76.83638702 -36.12117753 76.85029097 -39.88744336 76.86524153 C-47.10060726 76.89306796 -54.31352985 76.91059337 -61.52674961 76.90529633 C-64.2933977 76.90455938 -67.06004288 76.90506707 -69.82669067 76.90649414 C-70.83858096 76.90683194 -70.83858096 76.90683194 -71.87091347 76.90717655 C-80.65093783 76.91585775 -89.41458947 77.07061284 -98.18936902 77.37278605 C-103.31733849 77.54406288 -108.44594264 77.66591203 -113.57538879 77.78349972 C-115.95027966 77.85261561 -118.32459549 77.94694506 -120.69736874 78.06872654 C-138.20414624 78.96322207 -138.20414624 78.96322207 -142.90466619 75.66256142 C-146.56662475 71.93779529 -148.69086477 67.63542626 -151 63 C-152.34413428 61.25069828 -153.73002776 59.53105801 -155.1875 57.875 C-156.91796875 55.8671875 -156.91796875 55.8671875 -158 54 C-157.73322205 51.37037946 -157.25712654 50.25103169 -155.35205078 48.39111328 C-154.64032715 47.87274902 -153.92860352 47.35438477 -153.1953125 46.8203125 C-152.39383789 46.22839111 -151.59236328 45.63646973 -150.76660156 45.02661133 C-149.89487305 44.39907959 -149.02314453 43.77154785 -148.125 43.125 C-147.22749023 42.46588623 -146.32998047 41.80677246 -145.40527344 41.12768555 C-143.53220646 39.75339236 -141.655845 38.38357907 -139.77636719 37.01806641 C-136.37511585 34.54578857 -132.99123874 32.05052897 -129.60888672 29.55249023 C-128.04224401 28.3968845 -126.47356971 27.24402768 -124.90283203 26.09399414 C-121.01868373 23.24798462 -117.16593405 20.37107189 -113.359375 17.421875 C-112.62428711 16.85621826 -111.88919922 16.29056152 -111.13183594 15.70776367 C-109.7429383 14.63586936 -108.36039803 13.55567047 -106.98535156 12.46606445 C-105.3810661 11.23211207 -103.69599791 10.10451864 -102 9 C-98.42774064 10.19075312 -97.81119505 11.25238117 -95.64453125 14.25390625 C-95.02255859 15.10791016 -94.40058594 15.96191406 -93.75976562 16.84179688 C-93.11716797 17.73962891 -92.47457031 18.63746094 -91.8125 19.5625 C-91.15830078 20.46419922 -90.50410156 21.36589844 -89.83007812 22.29492188 C-88.21338217 24.52525426 -86.60373514 26.76033912 -85 29 C-80.34315214 26.44455474 -76.1800612 23.74127233 -72 20.4375 C-66.96140575 16.49046344 -61.85632658 12.64999262 -56.6875 8.875 C-56.02298828 8.3895874 -55.35847656 7.9041748 -54.67382812 7.40405273 C-53.11678876 6.26812922 -51.55853435 5.13387146 -50 4 C-46.22167289 7.5084466 -43.27666344 11.47823276 -40.25 15.625 C-39.74339844 16.305625 -39.23679687 16.98625 -38.71484375 17.6875 C-38.23660156 18.33976562 -37.75835938 18.99203125 -37.265625 19.6640625 C-36.61255371 20.55279053 -36.61255371 20.55279053 -35.94628906 21.45947266 C-35 23 -35 23 -35 25 C-28.8567922 22.35699199 -23.87970608 18.26914845 -18.625 14.1875 C-16.80487259 12.78491602 -14.98456276 11.38256874 -13.1640625 9.98046875 C-11.86130371 8.9737915 -11.86130371 8.9737915 -10.53222656 7.94677734 C-7.0452045 5.26595263 -3.52813381 2.62638837 0 0 Z " fill="#C78178" transform="translate(615,262)"/>
<path d="M0 0 C3.40200223 1.41665604 5.03916383 3.00553554 7.1640625 5.9921875 C7.72867188 6.77980469 8.29328125 7.56742187 8.875 8.37890625 C9.4525 9.20261719 10.03 10.02632813 10.625 10.875 C11.50285156 12.09896484 11.50285156 12.09896484 12.3984375 13.34765625 C14.86387716 16.81397394 17.17949775 20.14513806 19 24 C10.7157137 30.40027926 2.39131153 36.74053518 -6 43 C-2.6029466 48.34414499 1.04867908 53.44126164 4.9375 58.4375 C17 73.94285748 17 73.94285748 17 76 C11.19998999 76.06219769 5.39997381 76.12378484 -0.4000473 76.18493843 C-2.53712857 76.20753596 -4.67420845 76.23026586 -6.81128693 76.25312614 C-19.64581257 76.39022681 -32.48028749 76.51487611 -45.31518555 76.61157227 C-50.02783681 76.64800955 -54.7404821 76.68515472 -59.453125 76.72265625 C-60.61721201 76.73174074 -61.78129902 76.74082523 -62.98066139 76.75018501 C-76.22261858 76.85706995 -89.45215917 77.04267934 -102.68704414 77.49233627 C-107.10558579 77.63533291 -111.52543099 77.73280203 -115.94503784 77.83642578 C-118.16968461 77.90319845 -120.3937365 77.99502905 -122.61624146 78.11328125 C-138.38977603 78.94878023 -138.38977603 78.94878023 -142.79476929 75.66003418 C-146.40073719 71.89955339 -148.61519362 67.59024434 -151 63 C-152.34733896 61.25316538 -153.73357241 59.53417089 -155.1875 57.875 C-156.91796875 55.8671875 -156.91796875 55.8671875 -158 54 C-157.73322205 51.37037946 -157.25712654 50.25103169 -155.35205078 48.39111328 C-154.64032715 47.87274902 -153.92860352 47.35438477 -153.1953125 46.8203125 C-152.39383789 46.22839111 -151.59236328 45.63646973 -150.76660156 45.02661133 C-149.89487305 44.39907959 -149.02314453 43.77154785 -148.125 43.125 C-147.22749023 42.46588623 -146.32998047 41.80677246 -145.40527344 41.12768555 C-143.53220646 39.75339236 -141.655845 38.38357907 -139.77636719 37.01806641 C-136.37511585 34.54578857 -132.99123874 32.05052897 -129.60888672 29.55249023 C-128.04224401 28.3968845 -126.47356971 27.24402768 -124.90283203 26.09399414 C-121.01868373 23.24798462 -117.16593405 20.37107189 -113.359375 17.421875 C-112.62428711 16.85621826 -111.88919922 16.29056152 -111.13183594 15.70776367 C-109.7429383 14.63586936 -108.36039803 13.55567047 -106.98535156 12.46606445 C-105.3810661 11.23211207 -103.69599791 10.10451864 -102 9 C-98.42774064 10.19075312 -97.81119505 11.25238117 -95.64453125 14.25390625 C-95.02255859 15.10791016 -94.40058594 15.96191406 -93.75976562 16.84179688 C-93.11716797 17.73962891 -92.47457031 18.63746094 -91.8125 19.5625 C-91.15830078 20.46419922 -90.50410156 21.36589844 -89.83007812 22.29492188 C-88.21338217 24.52525426 -86.60373514 26.76033912 -85 29 C-80.34315214 26.44455474 -76.1800612 23.74127233 -72 20.4375 C-66.96140575 16.49046344 -61.85632658 12.64999262 -56.6875 8.875 C-56.02298828 8.3895874 -55.35847656 7.9041748 -54.67382812 7.40405273 C-53.11678876 6.26812922 -51.55853435 5.13387146 -50 4 C-46.22167289 7.5084466 -43.27666344 11.47823276 -40.25 15.625 C-39.74339844 16.305625 -39.23679687 16.98625 -38.71484375 17.6875 C-38.23660156 18.33976562 -37.75835938 18.99203125 -37.265625 19.6640625 C-36.61255371 20.55279053 -36.61255371 20.55279053 -35.94628906 21.45947266 C-35 23 -35 23 -35 25 C-28.8567922 22.35699199 -23.87970608 18.26914845 -18.625 14.1875 C-16.80487259 12.78491602 -14.98456276 11.38256874 -13.1640625 9.98046875 C-11.86130371 8.9737915 -11.86130371 8.9737915 -10.53222656 7.94677734 C-7.0452045 5.26595263 -3.52813381 2.62638837 0 0 Z " fill="#E3CEBA" transform="translate(615,262)"/>
<path d="M0 0 C2.57113592 1.01824119 3.40485528 2.14950257 5.00146484 4.39404297 C5.82106689 5.527854 5.82106689 5.527854 6.65722656 6.68457031 C7.23746582 7.50908691 7.81770508 8.33360352 8.41552734 9.18310547 C9.6757305 10.93325923 10.93615309 12.683255 12.19677734 14.43310547 C12.83744141 15.33029297 13.47810547 16.22748047 14.13818359 17.15185547 C17.02890625 21.18818279 19.96969518 25.18690992 22.91552734 29.18310547 C23.48198975 29.95444824 24.04845215 30.72579102 24.63208008 31.52050781 C27.79025183 35.80814163 30.98826365 40.0612864 34.23193359 44.28466797 C35.29275146 45.6664624 35.29275146 45.6664624 36.375 47.07617188 C37.72845131 48.83437017 39.08588799 50.58951146 40.44824219 52.34082031 C43.76897234 56.65103081 46.8691141 61.01569351 49.77124023 65.62060547 C50.38761856 66.59642578 51.00399689 67.57224609 51.63905334 68.57763672 C52.33278297 69.68171875 52.33278297 69.68171875 53.04052734 70.80810547 C41.46194524 71.06347008 29.88403744 71.25867211 18.30320835 71.37803936 C12.92500103 71.43534469 7.548726 71.51300495 2.17163086 71.63793945 C-3.02216998 71.75785387 -8.21411817 71.82331025 -13.40919685 71.85175514 C-15.38651761 71.87201235 -17.36374178 71.91157484 -19.34026909 71.97113609 C-34.8050229 72.41843297 -34.8050229 72.41843297 -40.10829163 68.45454407 C-42.41544631 65.67363626 -44.19770396 62.95526255 -45.95947266 59.80810547 C-47.11009448 58.19791109 -48.2750944 56.59774104 -49.46337891 55.01513672 C-50.48727847 53.553343 -51.50691619 52.08855354 -52.52197266 50.62060547 C-53.05371094 49.85941406 -53.58544922 49.09822266 -54.13330078 48.31396484 C-55.41265255 46.48137988 -56.68801253 44.64616993 -57.95947266 42.80810547 C-53.83956462 38.40152391 -49.28046667 34.95676578 -44.39697266 31.43310547 C-42.69586309 30.19302726 -40.99536255 28.95211325 -39.29541016 27.71044922 C-38.41852539 27.07091309 -37.54164063 26.43137695 -36.63818359 25.77246094 C-32.24052873 22.54756748 -27.88158182 19.27164114 -23.52197266 15.99560547 C-22.68529053 15.36992676 -21.8486084 14.74424805 -20.98657227 14.09960938 C-17.35234142 11.37871385 -13.73325138 8.6465285 -10.17431641 5.82763672 C-9.62122803 5.39491455 -9.06813965 4.96219238 -8.49829102 4.51635742 C-7.08202653 3.40433252 -5.67646326 2.27871421 -4.27197266 1.15185547 C-1.95947266 -0.19189453 -1.95947266 -0.19189453 0 0 Z " fill="#3B4848" transform="translate(766.95947265625,267.19189453125)"/>
<path d="M0 0 C12.23869505 -0.48898389 24.47503037 -0.86085766 36.72154236 -1.08805561 C42.41034438 -1.19717643 48.09241701 -1.34478857 53.77734375 -1.58422852 C93.65289314 -3.22088013 93.65289314 -3.22088013 102.43725586 4.51977539 C106.10628189 8.78949298 108.63637887 13.31806997 110.83885193 18.47999573 C112.55401182 22.20235498 114.90399313 24.95663857 117.5625 28.0625 C121.05070773 32.42115957 121.05070773 32.42115957 120.83007812 34.93969727 C119.74207726 37.64017941 118.38952535 38.55833247 116.02734375 40.2421875 C115.20943359 40.83386719 114.39152344 41.42554688 113.54882812 42.03515625 C112.68708984 42.64230469 111.82535156 43.24945313 110.9375 43.875 C109.25892401 45.08046384 107.58053681 46.28619062 105.90234375 47.4921875 C105.08233887 48.07452148 104.26233398 48.65685547 103.41748047 49.25683594 C100.42334411 51.41580721 97.50309597 53.66360477 94.59594727 55.93798828 C93 57 93 57 91 57 C89.51953125 55.3034668 89.51953125 55.3034668 87.8125 52.94921875 C87.19632813 52.10552734 86.58015625 51.26183594 85.9453125 50.39257812 C85.30335938 49.49990234 84.66140625 48.60722656 84 47.6875 C83.03707031 46.36588867 83.03707031 46.36588867 82.0546875 45.01757812 C79.64977594 41.70956692 77.26881804 38.40322705 75 35 C70.67373449 36.46061074 67.62121981 38.66379455 64.0625 41.5 C59.1912594 45.33811951 54.24547062 49.03618449 49.1875 52.625 C48.57076416 53.06263672 47.95402832 53.50027344 47.31860352 53.95117188 C45.88043865 54.96938522 44.44043506 55.98500078 43 57 C39.53299124 53.64876131 36.48210212 50.21045652 33.5625 46.375 C33.14274902 45.82432861 32.72299805 45.27365723 32.29052734 44.70629883 C27.91190765 38.93562786 23.62500907 33.09623004 19.34106445 27.25512695 C16.42029695 23.27414918 13.48622204 19.30528807 10.5078125 15.3671875 C9.95851074 14.64055908 9.40920898 13.91393066 8.84326172 13.1652832 C7.80859737 11.79973554 6.77130918 10.43617053 5.73095703 9.07495117 C3.51053831 6.14311741 1.57668535 3.31869742 0 0 Z " fill="#71959F" transform="translate(659,440)"/>
<path d="M0 0 C11.57858211 -0.25536461 23.1564899 -0.45056664 34.73731899 -0.56993389 C40.11552631 -0.62723922 45.49180134 -0.70489948 50.86889648 -0.82983398 C56.06269732 -0.9497484 61.25464551 -1.01520478 66.4497242 -1.04364967 C68.42704496 -1.06390688 70.40426912 -1.10346937 72.38079643 -1.16303062 C87.83860767 -1.6101267 87.83860767 -1.6101267 93.16433716 2.35726929 C95.4820537 5.13978093 97.26629095 7.82810653 99 11 C100.01785911 12.56443913 101.03829674 14.12720688 102.0625 15.6875 C102.701875 16.780625 103.34125 17.87375 104 19 C103.30161011 19.51046875 103.30161011 19.51046875 102.58911133 20.03125 C93.04986276 27.01192381 83.57132522 34.06147728 74.1875 41.25 C68.16822583 45.85151353 62.14203311 50.43802391 56 54.875 C54.948125 55.63554687 53.89625 56.39609375 52.8125 57.1796875 C50.24677046 58.84028467 47.87623296 59.99543334 45 61 C36.05559847 49.63358437 27.33235613 38.1298843 18.79833984 26.45263672 C16.91194984 23.87991421 15.01411073 21.31597618 13.11328125 18.75390625 C12.47712891 17.89531006 11.84097656 17.03671387 11.18554688 16.15209961 C9.96833401 14.50984591 8.74966449 12.86867051 7.52929688 11.22875977 C6.97951172 10.48553467 6.42972656 9.74230957 5.86328125 8.9765625 C5.38157471 8.32768066 4.89986816 7.67879883 4.40356445 7.01025391 C2.8169397 4.73781206 1.4164636 2.38139738 0 0 Z " fill="#3B4848" transform="translate(806,440)"/>
<path d="M0 0 C3.40200223 1.41665604 5.03916383 3.00553554 7.1640625 5.9921875 C7.72867188 6.77980469 8.29328125 7.56742187 8.875 8.37890625 C9.4525 9.20261719 10.03 10.02632813 10.625 10.875 C11.50285156 12.09896484 11.50285156 12.09896484 12.3984375 13.34765625 C14.86387716 16.81397394 17.17949775 20.14513806 19 24 C10.7157137 30.40027926 2.39131153 36.74053518 -6 43 C-2.6029466 48.34414499 1.04867908 53.44126164 4.9375 58.4375 C17 73.94285748 17 73.94285748 17 76 C10.06391585 76.35689127 3.13021458 76.60086851 -3.81298828 76.76904297 C-6.1706586 76.83917518 -8.52772574 76.9345214 -10.88330078 77.05615234 C-29.88103575 78.01206374 -29.88103575 78.01206374 -34.97219849 74.72772217 C-38.19958388 71.54547546 -40.199664 67.82732763 -42.11657715 63.75750732 C-43.37773194 61.248529 -45.05833436 59.20134184 -46.85546875 57.0546875 C-47.41427734 56.35085938 -47.97308594 55.64703125 -48.54882812 54.921875 C-49.67713126 53.51250469 -50.81301268 52.10917895 -51.95507812 50.7109375 C-52.49970703 50.02 -53.04433594 49.3290625 -53.60546875 48.6171875 C-54.09168701 48.01503418 -54.57790527 47.41288086 -55.07885742 46.79248047 C-56 45 -56 45 -55.85571289 42.94091797 C-54.81644831 40.58367021 -53.8194991 39.77932128 -51.703125 38.328125 C-51.0023584 37.83691162 -50.3015918 37.34569824 -49.57958984 36.83959961 C-48.8108252 36.31503174 -48.04206055 35.79046387 -47.25 35.25 C-45.59971695 34.09247049 -43.95135719 32.93219528 -42.3046875 31.76953125 C-41.00289551 30.85228271 -41.00289551 30.85228271 -39.67480469 29.91650391 C-35.16767063 26.68713166 -30.7730808 23.31311892 -26.375 19.9375 C-24.61863682 18.59225566 -22.86212791 17.24720156 -21.10546875 15.90234375 C-20.2551709 15.25120605 -19.40487305 14.60006836 -18.52880859 13.92919922 C-12.38548612 9.2425286 -6.19092681 4.62349273 0 0 Z " fill="#71959F" transform="translate(615,262)"/>
<path d="M0 0 C20 0 20 0 24.26953125 3.8984375 C25.61962891 6.50415039 25.61962891 6.50415039 26.8125 9.375 C27.814084 11.38267062 28.81810039 13.38912913 29.82421875 15.39453125 C30.32743652 16.46268066 30.8306543 17.53083008 31.34912109 18.63134766 C33.99419076 24.02866668 37.0633426 29.16749989 40.11483765 34.34234619 C41.72409006 37.08265982 43.30182674 39.84096766 44.8828125 42.59765625 C46.88742549 46.08912038 48.92806326 49.5467721 51 53 C51 35.51 51 18.02 51 0 C55.95 0 60.9 0 66 0 C66 24.42 66 48.84 66 74 C59.07 74 52.14 74 45 74 C44.03320312 72.24816406 43.06640625 70.49632812 42.0703125 68.69140625 C32.83773616 51.97375627 32.83773616 51.97375627 23.23486328 35.46704102 C20.38240393 30.69221637 17.70645014 25.87161024 15 21 C14.67 38.49 14.34 55.98 14 74 C9.38 74 4.76 74 0 74 C0 49.58 0 25.16 0 0 Z " fill="#089AB4" transform="translate(545,347)"/>
<path d="M0 0 C2.60654473 1.10150392 3.51803793 2.40325494 5.14111328 4.7097168 C5.70121094 5.49604492 6.26130859 6.28237305 6.83837891 7.0925293 C7.41136719 7.92010742 7.98435547 8.74768555 8.57470703 9.6003418 C9.43999023 10.81850586 9.43999023 10.81850586 10.32275391 12.0612793 C13.03841586 15.907684 15.67498432 19.75812267 18.01220703 23.8503418 C15.13993715 26.10384423 12.26390874 28.35250046 9.38720703 30.6003418 C8.17484375 31.55166992 8.17484375 31.55166992 6.93798828 32.5222168 C2.72674507 35.80904076 -1.48923794 38.96777256 -5.98779297 41.8503418 C-2.5731076 48.33824399 1.77035071 53.94783049 6.26220703 59.7253418 C7.72783059 61.61695975 9.19148976 63.51010195 10.65283203 65.4050293 C11.29768555 66.23502441 11.94253906 67.06501953 12.60693359 67.92016602 C14.01220703 69.8503418 14.01220703 69.8503418 14.01220703 70.8503418 C6.7912283 71.20709742 -0.42746408 71.45116204 -7.65527344 71.61938477 C-10.10991288 71.68953579 -12.56397244 71.78489513 -15.01660156 71.90649414 C-34.82894766 72.86372889 -34.82894766 72.86372889 -40.02813721 69.54986572 C-43.76923783 65.89555919 -45.81143769 61.54695907 -47.98779297 56.8503418 C-49.5683489 54.52830231 -49.5683489 54.52830231 -51.15185547 52.6394043 C-51.78027344 51.82729492 -51.78027344 51.82729492 -52.42138672 50.9987793 C-52.81455078 50.49604492 -53.20771484 49.99331055 -53.61279297 49.4753418 C-54.04462891 48.9184668 -54.47646484 48.3615918 -54.92138672 47.7878418 C-55.94114145 46.47349125 -56.96405765 45.16159427 -57.98779297 43.8503418 C-56.64841266 40.73411391 -55.37504621 39.10231088 -52.59326172 37.1784668 C-51.54682495 36.44152588 -51.54682495 36.44152588 -50.47924805 35.68969727 C-49.71894287 35.16520996 -48.9586377 34.64072266 -48.17529297 34.1003418 C-46.53546289 32.94404922 -44.89751912 31.785078 -43.26123047 30.6237793 C-42.39981445 30.01244141 -41.53839844 29.40110352 -40.65087891 28.77124023 C-36.1324524 25.51207451 -31.71945121 22.11721124 -27.30029297 18.7253418 C-25.53749911 17.37999225 -23.77448184 16.0349354 -22.01123047 14.69018555 C-19.55759733 12.81742969 -17.10640086 10.94205227 -14.66455078 9.05395508 C-12.59323736 7.4538126 -10.51095541 5.86920663 -8.42529297 4.2878418 C-7.82434814 3.81652832 -7.22340332 3.34521484 -6.60424805 2.85961914 C-2.53980587 -0.1912185 -2.53980587 -0.1912185 0 0 Z " fill="#FEDD59" transform="translate(715.98779296875,267.149658203125)"/>
<path d="M0 0 C7.64831147 -0.35657083 15.29446763 -0.60075384 22.94921875 -0.76904297 C25.54931699 -0.83921975 28.1488671 -0.93459706 30.74707031 -1.05615234 C51.66219802 -2.00975395 51.66219802 -2.00975395 57.05947876 1.24005127 C60.35280898 4.36076089 62.26169896 8.05708511 64.10534668 12.15655518 C65.4873856 15.00426439 67.40414539 17.35356579 69.37109375 19.8203125 C70.38526367 21.14675781 70.38526367 21.14675781 71.41992188 22.5 C72.41862305 23.799375 72.41862305 23.799375 73.4375 25.125 C74.81127392 26.91921264 76.18497477 28.71348123 77.55859375 30.5078125 C78.44502563 31.66240967 78.44502563 31.66240967 79.34936523 32.84033203 C79.89407471 33.55302246 80.43878418 34.26571289 81 35 C81.565979 35.71140137 82.13195801 36.42280273 82.71508789 37.15576172 C84 39 84 39 84 41 C82.49389648 42.33764648 82.49389648 42.33764648 80.37109375 43.87109375 C79.58984131 44.44069824 78.80858887 45.01030273 78.00366211 45.59716797 C77.15682861 46.20447754 76.30999512 46.81178711 75.4375 47.4375 C73.69783464 48.69910565 71.95825242 49.96082595 70.21875 51.22265625 C69.34347656 51.85445801 68.46820312 52.48625977 67.56640625 53.13720703 C65.18688455 54.86435226 62.82420416 56.61132597 60.46875 58.37109375 C59.44309937 59.13498413 59.44309937 59.13498413 58.39672852 59.91430664 C57.11114603 60.87276645 55.82770089 61.83410117 54.54663086 62.79858398 C50.22444603 66 50.22444603 66 48 66 C46.83349609 64.6809082 46.83349609 64.6809082 45.5234375 62.80078125 C44.77670776 61.74455566 44.77670776 61.74455566 44.01489258 60.66699219 C43.47372803 59.89000977 42.93256348 59.11302734 42.375 58.3125 C37.32460268 51.18100922 32.13745909 44.17881684 26.8125 37.25 C21.4918704 30.31322365 16.29660675 23.31816764 11.26171875 16.171875 C8.13640057 11.78887265 4.8838161 7.50873493 1.6171875 3.23046875 C0 1 0 1 0 0 Z " fill="#88584E" transform="translate(550,440)"/>
<path d="M0 0 C4.9852257 1.6617419 7.22379984 6.239595 10.25 10.375 C10.91257812 11.2515625 11.57515625 12.128125 12.2578125 13.03125 C12.87914062 13.87429688 13.50046875 14.71734375 14.140625 15.5859375 C14.71329102 16.3598584 15.28595703 17.1337793 15.87597656 17.93115234 C16.2469043 18.61387207 16.61783203 19.2965918 17 20 C15.83895531 23.48313406 15.00401049 23.98174229 12.0703125 26.03125 C10.87728516 26.87623047 10.87728516 26.87623047 9.66015625 27.73828125 C8.82355469 28.31964844 7.98695313 28.90101563 7.125 29.5 C5.48003444 30.65377834 3.83673791 31.80994079 2.1953125 32.96875 C1.46328613 33.47857422 0.73125977 33.98839844 -0.02294922 34.51367188 C-1.85742346 35.8928123 -3.42655444 37.33407184 -5 39 C-4.53625977 39.59949463 -4.07251953 40.19898926 -3.59472656 40.81665039 C-1.47528882 43.5618042 0.63739113 46.31208793 2.75 49.0625 C3.47960937 50.00544922 4.20921875 50.94839844 4.9609375 51.91992188 C5.66992188 52.84482422 6.37890625 53.76972656 7.109375 54.72265625 C7.75874023 55.56578369 8.40810547 56.40891113 9.07714844 57.27758789 C11.29427021 60.41663371 13.1376283 63.63939737 15 67 C7.45679014 67.25427716 -0.08530978 67.42896482 -7.63183594 67.54931641 C-10.19670912 67.59950012 -12.7612977 67.6676658 -15.32519531 67.75439453 C-19.01959426 67.87620365 -22.71020444 67.93251418 -26.40625 67.9765625 C-28.1160907 68.05398178 -28.1160907 68.05398178 -29.86047363 68.13296509 C-34.68716932 68.13633908 -37.74837425 68.10400916 -41.46141052 64.82888794 C-43.49484767 62.30213582 -45.26476181 59.73722897 -47 57 C-47.91187124 55.83325709 -48.83805242 54.67739133 -49.78515625 53.5390625 C-50.53667969 52.57742188 -51.28820312 51.61578125 -52.0625 50.625 C-52.83722656 49.64789063 -53.61195313 48.67078125 -54.41015625 47.6640625 C-56 45 -56 45 -55.8371582 43.03222656 C-54.7580901 40.41275648 -53.47941315 39.48387415 -51.1953125 37.8203125 C-50.39383789 37.22839111 -49.59236328 36.63646973 -48.76660156 36.02661133 C-47.89487305 35.39907959 -47.02314453 34.77154785 -46.125 34.125 C-45.22749023 33.46588623 -44.32998047 32.80677246 -43.40527344 32.12768555 C-41.53220646 30.75339236 -39.655845 29.38357907 -37.77636719 28.01806641 C-34.37511585 25.54578857 -30.99123874 23.05052897 -27.60888672 20.55249023 C-26.04224401 19.3968845 -24.47356971 18.24402768 -22.90283203 17.09399414 C-19.01868373 14.24798462 -15.16593405 11.37107189 -11.359375 8.421875 C-10.62428711 7.85621826 -9.88919922 7.29056152 -9.13183594 6.70776367 C-7.7429383 5.63586936 -6.36039803 4.55567047 -4.98535156 3.46606445 C-3.3810661 2.23211207 -1.69599791 1.10451864 0 0 Z " fill="#88584E" transform="translate(513,271)"/>
<path d="M0 0 C1.65387222 0.00128403 1.65387222 0.00128403 3.34115601 0.00259399 C17.12328654 0.01408026 30.90539392 0.03429297 44.6875 0.0625 C44.6875 0.3925 44.6875 0.7225 44.6875 1.0625 C13.6675 1.3925 -17.3525 1.7225 -49.3125 2.0625 C-42.3825 11.4675 -42.3825 11.4675 -35.3125 21.0625 C-31.64426465 26.06136974 -27.97625459 31.06035342 -24.3125 36.0625 C-28.92963078 41.0497805 -34.26982973 44.98419821 -39.6875 49.0625 C-40.60789062 49.76117188 -41.52828125 50.45984375 -42.4765625 51.1796875 C-44.26686474 52.53520205 -46.06195405 53.88442265 -47.86230469 55.2265625 C-49.387505 56.36939892 -50.90101135 57.52823238 -52.39550781 58.7109375 C-56.7928257 62.10683953 -56.7928257 62.10683953 -59.33837891 61.88964844 C-61.74288966 60.88216854 -62.51712097 59.90541716 -63.984375 57.765625 C-64.72107422 56.7147168 -64.72107422 56.7147168 -65.47265625 55.64257812 C-66.25962891 54.48918945 -66.25962891 54.48918945 -67.0625 53.3125 C-68.22127818 51.65957618 -69.38285686 50.00861295 -70.546875 48.359375 C-71.46436523 47.05709961 -71.46436523 47.05709961 -72.40039062 45.72851562 C-75.60339981 41.26262437 -78.96049326 36.91700243 -82.3125 32.5625 C-87.53804311 25.74438038 -92.70236656 18.8886181 -97.75 11.9375 C-98.29978516 11.18533203 -98.84957031 10.43316406 -99.41601562 9.65820312 C-99.91681641 8.96404297 -100.41761719 8.26988281 -100.93359375 7.5546875 C-101.3711499 6.94995605 -101.80870605 6.34522461 -102.25952148 5.72216797 C-103.3125 4.0625 -103.3125 4.0625 -104.3125 1.0625 C-69.5404408 0.10733531 -34.7830536 -0.02719551 0 0 Z " fill="#E3CEBB" transform="translate(709.3125,438.9375)"/>
<path d="M0 0 C1.04536045 0.00085602 2.0907209 0.00171204 3.16775894 0.00259399 C16.23685603 0.01408205 29.3059287 0.03429724 42.375 0.0625 C42.375 0.3925 42.375 0.7225 42.375 1.0625 C-1.68 1.5575 -1.68 1.5575 -46.625 2.0625 C-42.665 7.3425 -38.705 12.6225 -34.625 18.0625 C-32.05684713 21.51696423 -29.49196842 24.9730205 -26.9375 28.4375 C-26.33228516 29.25476563 -25.72707031 30.07203125 -25.10351562 30.9140625 C-24.24209961 32.08195312 -24.24209961 32.08195312 -23.36328125 33.2734375 C-22.60591675 34.29896729 -22.60591675 34.29896729 -21.83325195 35.34521484 C-20.625 37.0625 -20.625 37.0625 -19.625 39.0625 C-20.6665625 39.78953125 -21.708125 40.5165625 -22.78125 41.265625 C-32.87888335 48.33978045 -42.80496528 55.60826099 -52.625 63.0625 C-56.50515384 59.50569231 -59.35816173 55.4019427 -62.375 51.125 C-67.33377583 44.17131435 -72.42337862 37.33625321 -77.625 30.5625 C-82.87989433 23.70815197 -88.06167065 16.80981817 -93.125 9.8125 C-93.68316406 9.04357422 -94.24132812 8.27464844 -94.81640625 7.48242188 C-95.57244141 6.43151367 -95.57244141 6.43151367 -96.34375 5.359375 C-97.00793945 4.43656738 -97.00793945 4.43656738 -97.68554688 3.49511719 C-98.625 2.0625 -98.625 2.0625 -98.625 1.0625 C-65.74896101 0.10313712 -32.88751671 -0.02712093 0 0 Z " fill="#FBDC5C" transform="translate(853.625,438.9375)"/>
<path d="M0 0 C5.29339217 3.63151323 8.66747806 8.34563095 11.1875 14.1875 C12.09474045 19.72166675 11.8125 25.3919623 11.8125 31 C-0.0675 31 -11.9475 31 -24.1875 31 C-22.9613455 38.50052432 -22.9613455 38.50052432 -20.01171875 41.4765625 C-12.03702255 45.77826584 -0.62446929 43.07679244 7.8125 41 C7.8125 44.63 7.8125 48.26 7.8125 52 C-1.73576017 56.39219968 -12.73021087 57.90601415 -23 54.875 C-30.25258755 52.00862808 -35.33335542 48.02265157 -38.49609375 40.83203125 C-41.56857824 32.69081528 -41.52608071 22.17292637 -39.3515625 13.76953125 C-36.33436538 7.2390207 -31.33425499 2.15312278 -24.953125 -1.16015625 C-17.55431045 -3.4069714 -7.00712693 -3.55746444 0 0 Z " fill="#079AB4" transform="translate(814.1875,366)"/>
<path d="M0 0 C5.29339217 3.63151323 8.66747806 8.34563095 11.1875 14.1875 C12.09474045 19.72166675 11.8125 25.3919623 11.8125 31 C-0.0675 31 -11.9475 31 -24.1875 31 C-22.9613455 38.50052432 -22.9613455 38.50052432 -20.01171875 41.4765625 C-12.03702255 45.77826584 -0.62446929 43.07679244 7.8125 41 C7.8125 44.63 7.8125 48.26 7.8125 52 C-1.73576017 56.39219968 -12.73021087 57.90601415 -23 54.875 C-30.25258755 52.00862808 -35.33335542 48.02265157 -38.49609375 40.83203125 C-41.56857824 32.69081528 -41.52608071 22.17292637 -39.3515625 13.76953125 C-36.33436538 7.2390207 -31.33425499 2.15312278 -24.953125 -1.16015625 C-17.55431045 -3.4069714 -7.00712693 -3.55746444 0 0 Z " fill="#079AB4" transform="translate(665.1875,366)"/>
<path d="M0 0 C41.07212783 -3.44878534 41.07212783 -3.44878534 49.60400391 1.86767578 C54.8185089 6.48170545 57.89604323 12.10096743 60.74023438 18.38818359 C62.51369706 22.06502541 64.92836825 24.97542917 67.5625 28.0625 C71.05070773 32.42115957 71.05070773 32.42115957 70.83007812 34.93969727 C69.74207726 37.64017941 68.38952535 38.55833247 66.02734375 40.2421875 C65.20943359 40.83386719 64.39152344 41.42554688 63.54882812 42.03515625 C62.68708984 42.64230469 61.82535156 43.24945313 60.9375 43.875 C59.25892401 45.08046384 57.58053681 46.28619062 55.90234375 47.4921875 C55.08233887 48.07452148 54.26233398 48.65685547 53.41748047 49.25683594 C50.42334411 51.41580721 47.50309597 53.66360477 44.59594727 55.93798828 C43 57 43 57 41 57 C39.70996094 55.55737305 39.70996094 55.55737305 38.234375 53.51171875 C37.68128662 52.7522998 37.12819824 51.99288086 36.55834961 51.21044922 C35.66321655 49.96158936 35.66321655 49.96158936 34.75 48.6875 C33.47537633 46.93350951 32.20063347 45.17960563 30.92578125 43.42578125 C29.94665771 42.07154053 29.94665771 42.07154053 28.94775391 40.68994141 C25.96457942 36.57003461 22.95311006 32.47119658 19.9375 28.375 C19.36854004 27.59995117 18.79958008 26.82490234 18.21337891 26.02636719 C15.26091406 22.01676449 12.27425683 18.03847813 9.23046875 14.09765625 C8.62533447 13.31406738 8.0202002 12.53047852 7.39672852 11.72314453 C6.23904966 10.22966384 5.07695589 8.73959216 3.90991211 7.25341797 C3.39565674 6.59100098 2.88140137 5.92858398 2.3515625 5.24609375 C1.89604004 4.66529053 1.44051758 4.0844873 0.97119141 3.48608398 C0 2 0 2 0 0 Z " fill="#C78178" transform="translate(709,440)"/>
<path d="M0 0 C14.19 0 28.38 0 43 0 C43 4.29 43 8.58 43 13 C34.09 13 25.18 13 16 13 C16 19.27 16 25.54 16 32 C24.25 32 32.5 32 41 32 C41 36.29 41 40.58 41 45 C32.75 45 24.5 45 16 45 C16 54.57 16 64.14 16 74 C10.72 74 5.44 74 0 74 C0 49.58 0 25.16 0 0 Z " fill="#099AB4" transform="translate(721,347)"/>
<path d="M0 0 C4.95 0 9.9 0 15 0 C15 18.48 15 36.96 15 56 C10.05 56 5.1 56 0 56 C0 37.52 0 19.04 0 0 Z " fill="#0097B2" transform="translate(689,365)"/>
<path d="M0 0 C2.5625 1.0625 2.5625 1.0625 4 3 C4.73048385 7.38290313 4.50695545 9.27797254 1.9375 12.9375 C-1.72903411 15.51187502 -3.60406563 15.63940864 -8 15 C-10.4375 14.0625 -10.4375 14.0625 -12 12 C-12.62429901 8.19035716 -13.06299046 4.49483033 -10.75 1.2421875 C-7.49853714 -1.06577051 -3.81203052 -0.48854543 0 0 Z " fill="#089AB4" transform="translate(701,343)"/>
<path d="M0 0 C3 2.125 3 2.125 5 5 C5.33 6.98 5.66 8.96 6 11 C-0.93 11 -7.86 11 -15 11 C-14 4 -14 4 -12 1.5625 C-7.91042177 -0.56748866 -4.51899297 -0.94145687 0 0 Z " fill="#F8FBFB" transform="translate(805,375)"/>
<path d="M0 0 C3 2.125 3 2.125 5 5 C5.33 6.98 5.66 8.96 6 11 C-0.93 11 -7.86 11 -15 11 C-14 4 -14 4 -12 1.5625 C-7.91042177 -0.56748866 -4.51899297 -0.94145687 0 0 Z " fill="#F8FBFB" transform="translate(656,375)"/>
</svg>
